<?xml version="1.0" encoding="UTF-8"?> <svg xmlns="http://www.w3.org/2000/svg" xmlns:xlink="http://www.w3.org/1999/xlink" version="1.0" id="Layer_1" x="0px" y="0px" width="100px" height="100px" viewBox="0 0 100 100" xml:space="preserve"> <path d="M50,56.667c0,11.048,8.952,20,20,20h6.667v6.666H63.333V90H90V56.667H50z" id="id_101" class="" fill="#ffffff"></path> <path d="M36.667,23.333C36.667,15.97,30.697,10,23.333,10S10,15.97,10,23.333V90h6.667V23.333c0-3.682,2.985-6.667,6.667-6.667 S30,19.652,30,23.333l-8.333,3.333V30H45v-3.333L36.667,23.333z" id="id_102" class="" fill="#ffffff"></path> <circle cx="27.5" cy="35.833" r="2.5" id="id_103" class="" fill="#ffffff"></circle> <circle cx="33.333" cy="42.5" r="2.5" id="id_104" class="" fill="#ffffff"></circle> <circle cx="39.167" cy="35.833" r="2.5" id="id_105" class="" fill="#ffffff"></circle> <circle cx="27.5" cy="49.167" r="2.5" id="id_106" class="" fill="#ffffff"></circle> <circle cx="33.333" cy="55.833" r="2.5" id="id_107" class="" fill="#ffffff"></circle> <circle cx="39.167" cy="49.167" r="2.5" id="id_108" class="" fill="#ffffff"></circle> <circle cx="27.5" cy="62.5" r="2.5" id="id_109" class="" fill="#ffffff"></circle> <circle cx="33.333" cy="69.167" r="2.5" id="id_110" class="" fill="#ffffff"></circle> <circle cx="39.167" cy="62.5" r="2.5" id="id_111" class="" fill="#ffffff"></circle> <circle cx="27.5" cy="75.833" r="2.5" id="id_112" class="" fill="#ffffff"></circle> <circle cx="39.167" cy="75.833" r="2.5" id="id_113" class="" fill="#ffffff"></circle> <rect x="76.667" y="35" width="13.333" height="16.667" id="id_114" class="" fill="#ffffff"></rect> </svg> 