<?xml version="1.0" encoding="UTF-8"?> <svg xmlns="http://www.w3.org/2000/svg" xmlns:xlink="http://www.w3.org/1999/xlink" version="1.1" id="Layer_1" x="0px" y="0px" viewBox="0 0 100 100" style="enable-background:new 0 0 100 100;" xml:space="preserve"> <style type="text/css"> .st0{fill:#FFFFFF;stroke:#FFFFFF;stroke-width:0.7906;stroke-miterlimit:10;} .st1{fill:none;stroke:#FFFFFF;stroke-width:0.7906;stroke-miterlimit:10;} .st2{fill:none;stroke:#FFFFFF;stroke-width:0.5466;stroke-miterlimit:10;} .st3{fill:none;stroke:#FFFFFF;stroke-width:0.2733;stroke-miterlimit:10;} </style> <g> <g> <path class="st0" d="M48.84,93.86c-7.13,0-8.46-3.19-8.51-3.32l-0.02-0.1v-4.44c0-0.27-0.14-0.52-0.37-0.67 c-0.58-0.39-1.44-1.18-1.56-2.56l-1.23-45.67c0-0.03-0.17-4.92-2.17-5.5c-0.07-0.02-0.13,0.03-0.14,0.1L33.83,43.5 c-0.01,0.06-0.02,0.11-0.03,0.17c-0.2,0.62-1.59,4.18-6.75,4.18c-1.35,0-2.39-0.45-3.09-1.35c-1.72-2.2-0.78-6.28-0.69-6.66 c0-0.02,0.01-0.03,0.01-0.05c0.09-0.6,1.57-10.9,1.57-14.25c0-4.02,1.35-7.89,2.48-10.43c1.47-3.3,2.71-4.37,8.63-5.58 c5.9-1.21,11.01-2.43,11.06-2.45l0.03-0.01c0.1-0.01,9.83-1.22,22.36-0.88l0.09,0.02c0.07,0.03,7.2,2.98,7.55,13.01 c0.35,10.05-4.54,11.91-4.75,11.99l-0.09,0.02h-12.3c-0.43,0-0.79,0.35-0.8,0.78l-1.03,51.43c0,0.01-0.06,0.81-0.53,1.4 c-0.3,0.37-0.64,0.6-0.93,0.72c-0.29,0.12-0.48,0.41-0.48,0.73l0,4.14C56.14,90.58,56.06,93.86,48.84,93.86z M40.86,90.16 c0,0.15,0.04,0.3,0.12,0.42c0.47,0.71,2.3,2.73,7.86,2.73c6.62,0,6.75-2.85,6.75-2.88V85.1l0.32-0.01 c0.52,0.01,0.8-0.21,1.06-0.45c0.5-0.46,0.56-1.18,0.55-1.19l1.04-51.99c0.01-0.43,0.36-0.78,0.8-0.78h12.6 c0.13,0,0.25-0.03,0.37-0.09c0.93-0.5,4.46-2.95,4.17-11.35c-0.31-8.7-5.85-11.87-7-12.43c-0.11-0.05-0.22-0.08-0.34-0.08 c-11.93-0.31-21.26,0.78-22,0.87c-0.03,0.01-0.04,0.01-0.06,0.01c-0.53,0.13-5.42,1.29-11.03,2.44c-5.98,1.23-6.91,2.29-8.24,5.27 c-1.11,2.49-2.44,6.28-2.44,10.21c0,3.47-1.51,13.89-1.58,14.38c0,0,0,0,0,0c-0.03,0.12-1.02,4.21,0.58,6.25 c0.59,0.76,1.49,1.14,2.66,1.14c4.75,0,6.01-3.11,6.21-3.72c0.01-0.06,0.02-0.12,0.04-0.18l1.07-12.44l0.26,0.02 c2.85,0.19,3.06,5.92,3.07,6.09l1.23,45.66c0.16,1.71,1.7,2.35,1.76,2.38l0.17,0.07L40.86,90.16z"></path> </g> <path class="st1" d="M66.05,30.95c-3.89-1.93-6.61-6.99-6.61-13.11c0-4.66,1.62-8.8,4.11-11.35"></path> <path class="st1" d="M70.01,30.95c-3.97-1.7-6.7-6.94-6.7-13.34c0-4.5,1.43-8.51,3.66-11.08"></path> <ellipse transform="matrix(0.9991 -0.0419 0.0419 0.9991 -0.7262 2.9485)" class="st1" cx="69.96" cy="18.8" rx="4.24" ry="7.61"></ellipse> <path class="st1" d="M66.42,14.33c0.59-1.06,1.41-1.6,2.34-1.64c1.99-0.08,3.72,2.74,3.87,6.31s-1.34,6.52-3.33,6.61 c-0.55,0.02-1.08-0.18-1.56-0.55"></path> <ellipse transform="matrix(0.9991 -0.0419 0.0419 0.9991 -0.727 2.9092)" class="st1" cx="69.03" cy="18.8" rx="2.14" ry="3.84"></ellipse> <path class="st1" d="M27.93,14.68l0.7,10.19c0,0-0.12,4.33,5.97,6.32c0,0,2.86,0.28,2.83,6.84"></path> <path class="st1" d="M29.3,27.69c-0.26-0.39-0.71-2.6-0.84-2.31c-0.24,0.55-1,1.29-1.47,4.41c-0.31,2.11-1.19,12.26-1.46,15.01 c-0.04,0.42,0.24,0.8,0.65,0.9c1.28,0.29,3.9,0.56,5.07-1.83c0.04-0.08,0.07-0.18,0.08-0.27l1.55-12.31 c0.04-0.33-0.11-0.65-0.4-0.82C31.7,29.97,30.08,28.9,29.3,27.69z"></path> <path class="st1" d="M29.57,28.15l-1.7,16.14c-0.03,0.24,0.22,0.43,0.44,0.33c0.39-0.17,0.89-0.51,1.03-1.13 c0.23-1.05,1.52-14.29,1.52-14.29S29.69,28.62,29.57,28.15z"></path> <path class="st2" d="M40.51,85.34c0,0,8.06,2.65,15.2,0.01"></path> <path class="st3" d="M40.7,86.77c0,0,8.16,2.75,15.31,0.11"></path> <path class="st3" d="M40.7,88.12c0,0,8.05,2.75,15.2,0.12"></path> <path class="st3" d="M40.7,89.46c0,0,8.04,2.77,15.18,0.14"></path> <path class="st3" d="M40.7,90.64c0,0,8.06,2.69,15.2,0.05"></path> </g> </svg> 