<?xml version="1.0" encoding="UTF-8"?> <svg xmlns="http://www.w3.org/2000/svg" xmlns:xlink="http://www.w3.org/1999/xlink" version="1.1" id="Layer_1" x="0px" y="0px" viewBox="0 0 100 100" style="enable-background:new 0 0 100 100;" xml:space="preserve"> <style type="text/css"> .st0{fill:none;stroke:#FFFFFF;stroke-width:0.9678;stroke-miterlimit:10;} .st1{fill:none;stroke:#FFFFFF;stroke-width:0.8632;stroke-miterlimit:10;} .st2{fill:none;stroke:#000000;stroke-width:0.9678;stroke-miterlimit:10;} .st3{fill:none;stroke:#000000;stroke-width:0.8632;stroke-miterlimit:10;} .st4{fill:none;stroke:#000000;stroke-width:0.4971;stroke-miterlimit:10;} .st5{fill:none;stroke:#000000;stroke-width:0.4848;stroke-miterlimit:10;} .st6{fill:none;stroke:#000000;stroke-width:0.2485;stroke-miterlimit:10;} .st7{fill:#FFFFFF;} .st8{fill:none;stroke:#FFFFFF;stroke-width:0.4971;stroke-miterlimit:10;} .st9{fill:none;stroke:#FFFFFF;stroke-width:0.4848;stroke-miterlimit:10;} .st10{fill:none;stroke:#FFFFFF;stroke-width:0.2485;stroke-miterlimit:10;} </style> <g> <path class="st2" d="M25.51,27.72l56.43,1.41c2.13,0.05,4,1.43,4.68,3.46L97.31,64.4c1.16,3.46-1.46,7.03-5.1,6.96L6.93,69.74 c-3.53-0.07-5.87-3.69-4.47-6.94L14.6,34.7C16.47,30.37,20.79,27.6,25.51,27.72z"></path> <path class="st2" d="M80.11,38.09L23.1,36.65c-1.03-0.03-1.84-0.88-1.82-1.91v0c0.03-1.03,0.88-1.84,1.91-1.82 c0,0,21.18,0.23,28.26,0.4c7.18,0.18,28.76,1.04,28.76,1.04c1.03,0.03,1.84,0.88,1.82,1.91v0C82,37.3,81.14,38.12,80.11,38.09z"></path> <path class="st2" d="M82.66,44.85l-63.21-1.6c-1.03-0.03-1.84-0.88-1.82-1.91v0c0.03-1.03,0.88-1.84,1.91-1.82 c0,0,23.45,0.36,31.26,0.56c7.99,0.2,31.95,1.04,31.95,1.04c1.03,0.03,1.84,0.88,1.82,1.91v0C84.55,44.06,83.69,44.87,82.66,44.85z "></path> <path class="st2" d="M88.15,58.76l-74.72-1.89c-1.03-0.03-1.84-0.88-1.82-1.91v0c0.03-1.03,0.88-1.84,1.91-1.82 c0,0,27.92,0.27,37.25,0.5c9.34,0.24,37.46,1.39,37.46,1.39c1.03,0.03,1.84,0.88,1.82,1.91v0C90.03,57.97,89.18,58.78,88.15,58.76z "></path> <path class="st2" d="M90.15,65.81L9.75,63.77c-1.03-0.03-1.84-0.88-1.82-1.91v0c0.03-1.03,0.88-1.84,1.91-1.82 c0,0,30.02,0.37,40.02,0.63c10.09,0.26,40.37,1.41,40.37,1.41c1.03,0.03,1.84,0.88,1.82,1.91v0 C92.03,65.02,91.18,65.83,90.15,65.81z"></path> <path class="st2" d="M40.74,50.71L16.56,50.1c-1.03-0.03-1.84-0.88-1.82-1.91v0c0.03-1.03,0.88-1.84,1.91-1.82l24.18,0.61 c1.03,0.03,1.84,0.88,1.82,1.91v0C42.62,49.92,41.77,50.73,40.74,50.71z"></path> <path class="st2" d="M86.22,51.86l-24.18-0.61c-1.03-0.03-1.84-0.88-1.82-1.91v0c0.03-1.03,0.88-1.84,1.91-1.82l24.18,0.61 c1.03,0.03,1.84,0.88,1.82,1.91v0C88.11,51.07,87.25,51.89,86.22,51.86z"></path> <ellipse transform="matrix(0.0253 -0.9997 0.9997 0.0253 1.7867 99.777)" class="st3" cx="52.06" cy="48.97" rx="2.72" ry="6.46"></ellipse> <path class="st2" d="M25.46,28.65l56.43,1.41c2.13,0.05,4,1.43,4.68,3.46l10.68,31.82c1.16,3.46-1.46,7.03-5.1,6.96L6.88,70.67 c-3.53-0.07-5.87-3.69-4.47-6.94l12.13-28.11C16.41,31.3,20.74,28.53,25.46,28.65z"></path> </g> </svg> 