<?xml version="1.0" encoding="UTF-8"?> <svg xmlns="http://www.w3.org/2000/svg" xmlns:xlink="http://www.w3.org/1999/xlink" version="1.1" id="Layer_1" x="0px" y="0px" viewBox="0 0 100 100" style="enable-background:new 0 0 100 100;" xml:space="preserve"> <style type="text/css"> .st0{fill:#FFFFFF;stroke:#000000;stroke-width:0.7915;stroke-miterlimit:10;} .st1{fill:none;stroke:#000000;stroke-width:0.7915;stroke-miterlimit:10;} .st2{fill:none;stroke:#000000;stroke-width:0.5472;stroke-miterlimit:10;} .st3{fill:none;stroke:#000000;stroke-width:0.2736;stroke-miterlimit:10;} </style> <g> <g> <path class="st0" d="M48.94,93.81c-7.14,0-8.47-3.19-8.52-3.33l-0.02-0.1v-4.45c0-0.27-0.14-0.52-0.37-0.67 c-0.58-0.39-1.44-1.18-1.57-2.56l-1.23-45.72c0-0.03-0.17-4.93-2.17-5.51c-0.07-0.02-0.13,0.03-0.14,0.1L33.92,43.4 c-0.01,0.06-0.02,0.11-0.03,0.17c-0.2,0.62-1.59,4.18-6.75,4.18c-1.35,0-2.4-0.45-3.1-1.35c-1.72-2.2-0.78-6.29-0.69-6.67 c0-0.02,0.01-0.03,0.01-0.05c0.09-0.6,1.57-10.91,1.57-14.27c0-4.03,1.35-7.9,2.49-10.44c1.48-3.3,2.72-4.37,8.64-5.58 c5.91-1.21,11.02-2.44,11.07-2.45l0.03-0.01c0.1-0.01,9.85-1.22,22.38-0.88l0.09,0.02c0.07,0.03,7.21,2.98,7.56,13.03 c0.35,10.07-4.55,11.92-4.76,12l-0.09,0.02H60.02c-0.44,0-0.79,0.35-0.8,0.78l-1.03,51.49c0,0.01-0.06,0.82-0.53,1.4 c-0.3,0.37-0.64,0.6-0.93,0.72c-0.29,0.12-0.48,0.41-0.48,0.73l0,4.14C56.25,90.53,56.17,93.81,48.94,93.81z M40.95,90.11 c0,0.15,0.04,0.3,0.12,0.42c0.47,0.71,2.3,2.73,7.87,2.73c6.63,0,6.76-2.85,6.76-2.88v-5.34l0.32-0.01 c0.52,0.01,0.8-0.21,1.06-0.45c0.51-0.46,0.56-1.18,0.56-1.19l1.04-52.05c0.01-0.43,0.36-0.78,0.8-0.78l12.61,0 c0.13,0,0.25-0.03,0.37-0.09c0.93-0.5,4.47-2.95,4.17-11.36c-0.31-8.71-5.86-11.88-7.01-12.45c-0.11-0.05-0.22-0.08-0.34-0.08 C57.35,6.28,48,7.38,47.27,7.47c-0.03,0.01-0.04,0.01-0.06,0.01c-0.53,0.13-5.43,1.29-11.04,2.44c-5.98,1.23-6.92,2.29-8.25,5.27 c-1.11,2.49-2.44,6.29-2.44,10.22c0,3.47-1.51,13.91-1.59,14.4c0,0,0,0,0,0c-0.03,0.12-1.02,4.22,0.58,6.25 c0.59,0.76,1.49,1.14,2.67,1.14c4.76,0,6.01-3.11,6.21-3.73c0.01-0.06,0.02-0.12,0.04-0.18l1.07-12.45l0.26,0.02 c2.85,0.19,3.06,5.92,3.07,6.1l1.23,45.71c0.16,1.71,1.7,2.35,1.76,2.38l0.17,0.07L40.95,90.11z"></path> </g> <path class="st1" d="M66.18,30.83c-3.89-1.93-6.62-7-6.62-13.12c0-4.67,1.62-8.81,4.11-11.37"></path> <path class="st1" d="M70.13,30.83c-3.97-1.7-6.71-6.95-6.71-13.36c0-4.51,1.44-8.52,3.67-11.09"></path> <ellipse transform="matrix(0.9991 -0.0419 0.0419 0.9991 -0.7206 2.9537)" class="st1" cx="70.09" cy="18.66" rx="4.24" ry="7.62"></ellipse> <path class="st1" d="M66.54,14.19c0.6-1.06,1.42-1.6,2.34-1.64c1.99-0.08,3.72,2.74,3.87,6.31c0.15,3.57-1.34,6.53-3.33,6.62 c-0.55,0.02-1.08-0.18-1.57-0.55"></path> <ellipse transform="matrix(0.9991 -0.0419 0.0419 0.9991 -0.7214 2.9144)" class="st1" cx="69.15" cy="18.66" rx="2.14" ry="3.84"></ellipse> <path class="st1" d="M28.01,14.54l0.7,10.2c0,0-0.12,4.34,5.98,6.33c0,0,2.86,0.28,2.84,6.85"></path> <path class="st1" d="M29.38,27.57c-0.26-0.39-0.71-2.61-0.84-2.31c-0.24,0.55-1,1.3-1.47,4.41c-0.31,2.11-1.19,12.28-1.46,15.03 c-0.04,0.42,0.24,0.8,0.66,0.9c1.28,0.3,3.91,0.56,5.08-1.84c0.04-0.08,0.07-0.18,0.08-0.27l1.55-12.32 c0.04-0.33-0.11-0.65-0.4-0.82C31.79,29.85,30.16,28.78,29.38,27.57z"></path> <path class="st1" d="M29.65,28.03l-1.71,16.16c-0.03,0.24,0.22,0.43,0.44,0.33c0.39-0.17,0.89-0.51,1.03-1.13 c0.23-1.06,1.52-14.31,1.52-14.31S29.77,28.5,29.65,28.03z"></path> <path class="st2" d="M40.6,85.29c0,0,8.07,2.65,15.22,0.01"></path> <path class="st3" d="M40.79,86.72c0,0,8.17,2.75,15.33,0.11"></path> <path class="st3" d="M40.79,88.07c0,0,8.06,2.76,15.22,0.12"></path> <path class="st3" d="M40.79,89.42c0,0,8.05,2.78,15.2,0.14"></path> <path class="st3" d="M40.79,90.59c0,0,8.07,2.69,15.22,0.05"></path> </g> </svg> 